<svg xmlns="http://www.w3.org/2000/svg" xmlns:xlink="http://www.w3.org/1999/xlink" viewBox="0 0 864 864"><defs><style>.cls-1,.cls-5,.cls-7{fill:none;}.cls-2{clip-path:url(#clip-path);}.cls-3{fill:#fef4e5;}.cls-4{fill:url(#linear-gradient);}.cls-5,.cls-7{stroke:#f15f5e;}.cls-5{stroke-miterlimit:10;stroke-width:3px;}.cls-6{fill:url(#linear-gradient-2);}.cls-7{stroke-linecap:round;stroke-linejoin:round;stroke-width:2px;}.cls-8{fill:#fdbb48;}.cls-9{fill:#202e5f;}.cls-10{fill:url(#linear-gradient-3);}.cls-11{fill:#50c6dc;}.cls-12{fill:#f15f5e;}</style><clipPath id="clip-path"><path class="cls-1" d="M42.88,433.27C42.88,218.37,217.1,44.15,432,44.15S821.12,218.37,821.12,433.27,646.9,822.39,432,822.39,42.88,648.18,42.88,433.27Z"/></clipPath><linearGradient id="linear-gradient" x1="432.99" y1="823.63" x2="432.99" y2="383.28" gradientUnits="userSpaceOnUse"><stop offset="0.3" stop-color="#50c6dc"/><stop offset="0.7" stop-color="#f15f5e"/></linearGradient><linearGradient id="linear-gradient-2" x1="492.17" y1="576.47" x2="492.17" y2="203.89" gradientUnits="userSpaceOnUse"><stop offset="0" stop-color="#c78680"/><stop offset="0.2" stop-color="#f15f5e"/></linearGradient><linearGradient id="linear-gradient-3" x1="387.12" y1="721.61" x2="387.12" y2="508.77" gradientUnits="userSpaceOnUse"><stop offset="0.26" stop-color="#50c6dc"/><stop offset="0.4" stop-color="#7fa8b7"/><stop offset="0.7" stop-color="#f15f5e"/></linearGradient></defs><g id="Isolation_Mode" data-name="Isolation Mode"><g class="cls-2"><rect class="cls-3" x="42.88" y="43.33" width="780.22" height="777.56"/><g id="LWPOLYLINE"><path class="cls-4" d="M823.1,577.09H741.45a.43.43,0,0,1-.26-.77l7.15-5.33a.43.43,0,0,0-.26-.77H719.39a29.88,29.88,0,0,0,30-29.76V511.12a.44.44,0,0,0-.44-.43H676a.43.43,0,0,0-.43.43v29.34a29.88,29.88,0,0,0,30,29.76H676.86a.43.43,0,0,0-.43.43.41.41,0,0,0,.17.34l7.15,5.33a.42.42,0,0,1,.17.34.43.43,0,0,1-.43.43H663.85a.43.43,0,0,0-.42.32l-.95,6a.43.43,0,0,1-.33.32.44.44,0,0,1-.51-.34l-3.35-19.32a.44.44,0,0,0-.51-.34.42.42,0,0,0-.34.36l-4,26.47a.43.43,0,0,1-.84,0l-4.19-16.45a.43.43,0,0,0-.84,0l-1.48,5.72a.46.46,0,0,1-.34.31.44.44,0,0,1-.51-.34l-2.85-14.11a.44.44,0,0,0-.86,0l-7.5,48.09a.45.45,0,0,1-.36.36.43.43,0,0,1-.49-.37l-8.79-61a.43.43,0,0,0-.49-.36.45.45,0,0,0-.37.37l-5.46,43.88a.43.43,0,0,1-.86,0L614,567.6a.43.43,0,0,0-.86,0l-2.81,19.63a.42.42,0,0,1-.36.36.43.43,0,0,1-.5-.35l-2.07-12.42a.43.43,0,0,0-.5-.35.44.44,0,0,0-.35.33l-1.11,4.9a.4.4,0,0,1-.33.32.43.43,0,0,1-.51-.33l-.47-2.25a.43.43,0,0,0-.43-.34H317.35l-21.21-24.23v-11.6h-7V523.85h-5.23V512.24H273.48v64.85h-7L245.59,383.28l-18,166.33h-9.94V488.5H207.13V426.2H179.74v15.07h-8.1v39.08h-9.38V531.3h-7V497.44H151.8v-8.65H141.34v-17.3h-3.49v17.3H127.39v8.65h-3.48v20.77h-9.34v29h-9.22v29.87H42.88V823.63H823.1V577.09"/></g><g id="LWPOLYLINE-2" data-name="LWPOLYLINE"><path class="cls-5" d="M751.67,516.3h4.63a13.88,13.88,0,0,1,13.88,13.89v2.58a13.87,13.87,0,0,1-9.49,13.17l-7.56,2.52"/></g><g id="LWPOLYLINE-3" data-name="LWPOLYLINE"><path class="cls-6" d="M519.94,576.47V203.89a34.71,34.71,0,0,1-55.54,0V576.47"/></g><g id="LWPOLYLINE-4" data-name="LWPOLYLINE"><rect class="cls-3" x="478.28" y="238.6" width="27.77" height="60.17"/></g><g id="LWPOLYLINE-5" data-name="LWPOLYLINE"><rect class="cls-3" x="478.28" y="312.65" width="27.77" height="74.05"/></g><g id="LWPOLYLINE-6" data-name="LWPOLYLINE"><rect class="cls-3" x="478.28" y="400.59" width="27.77" height="74.05"/></g><g id="LWPOLYLINE-7" data-name="LWPOLYLINE"><rect class="cls-3" x="478.28" y="488.53" width="27.77" height="87.94"/></g><g id="LWPOLYLINE-8" data-name="LWPOLYLINE"><line class="cls-7" x1="533.82" y1="562.59" x2="533.82" y2="318.6"/></g><g id="LWPOLYLINE-9" data-name="LWPOLYLINE"><line class="cls-7" x1="547.71" y1="562.59" x2="547.71" y2="356.45"/></g><g id="LWPOLYLINE-10" data-name="LWPOLYLINE"><line class="cls-7" x1="561.59" y1="562.59" x2="561.59" y2="385.9"/></g><g id="LWPOLYLINE-11" data-name="LWPOLYLINE"><line class="cls-7" x1="575.48" y1="562.59" x2="575.48" y2="410.45"/></g><g id="LWPOLYLINE-12" data-name="LWPOLYLINE"><line class="cls-7" x1="589.36" y1="562.59" x2="589.36" y2="431.63"/></g><g id="LWPOLYLINE-13" data-name="LWPOLYLINE"><line class="cls-7" x1="603.25" y1="530.19" x2="603.25" y2="450.3"/></g><g id="LWPOLYLINE-14" data-name="LWPOLYLINE"><line class="cls-7" x1="617.13" y1="530.19" x2="617.13" y2="466.97"/></g><g id="LWPOLYLINE-15" data-name="LWPOLYLINE"><line class="cls-7" x1="631.02" y1="530.19" x2="631.02" y2="482"/></g><g id="LWPOLYLINE-16" data-name="LWPOLYLINE"><path class="cls-7" d="M307,517.13A404.92,404.92,0,0,0,464.4,203.89"/></g><g id="LWPOLYLINE-17" data-name="LWPOLYLINE"><path class="cls-7" d="M341,561.09a460.44,460.44,0,0,0,179-357.2A405,405,0,0,0,658.79,501.94"/></g><g id="LWPOLYLINE-18" data-name="LWPOLYLINE"><line class="cls-7" x1="450.51" y1="562.59" x2="450.51" y2="448.54"/></g><g id="LWPOLYLINE-19" data-name="LWPOLYLINE"><line class="cls-7" x1="450.51" y1="431.01" x2="450.51" y2="318.6"/></g><g id="LWPOLYLINE-20" data-name="LWPOLYLINE"><line class="cls-7" x1="436.63" y1="562.59" x2="436.63" y2="468.89"/></g><g id="LWPOLYLINE-21" data-name="LWPOLYLINE"><line class="cls-7" x1="436.63" y1="452.76" x2="436.63" y2="356.45"/></g><g id="LWPOLYLINE-22" data-name="LWPOLYLINE"><line class="cls-7" x1="422.74" y1="562.59" x2="422.74" y2="487.16"/></g><g id="LWPOLYLINE-23" data-name="LWPOLYLINE"><line class="cls-7" x1="422.74" y1="472.09" x2="422.74" y2="385.9"/></g><g id="LWPOLYLINE-24" data-name="LWPOLYLINE"><line class="cls-7" x1="408.86" y1="562.59" x2="408.86" y2="503.71"/></g><g id="LWPOLYLINE-25" data-name="LWPOLYLINE"><line class="cls-7" x1="408.86" y1="489.5" x2="408.86" y2="410.45"/></g><g id="LWPOLYLINE-26" data-name="LWPOLYLINE"><line class="cls-7" x1="394.97" y1="562.59" x2="394.97" y2="518.82"/></g><g id="LWPOLYLINE-27" data-name="LWPOLYLINE"><line class="cls-7" x1="381.09" y1="519.75" x2="381.09" y2="450.3"/></g><g id="LWPOLYLINE-28" data-name="LWPOLYLINE"><line class="cls-7" x1="367.2" y1="530.19" x2="367.2" y2="466.97"/></g><g id="LWPOLYLINE-29" data-name="LWPOLYLINE"><line class="cls-7" x1="353.32" y1="530.19" x2="353.32" y2="482"/></g><g id="LWPOLYLINE-30" data-name="LWPOLYLINE"><line class="cls-7" x1="394.97" y1="505.31" x2="394.97" y2="431.63"/></g><g id="LWPOLYLINE-31" data-name="LWPOLYLINE"><path class="cls-8" d="M725.8,450.61a30.85,30.85,0,1,0-7-6.8l-6.44,13.64Z"/></g><path class="cls-9" d="M223.87,647.67q.85-.61,1.2-.12a1.34,1.34,0,0,1,.19,1.12,44.31,44.31,0,0,1-2,6.85c-.95,2.51-2,5-3.15,7.42a74.79,74.79,0,0,1-3.62,6.77,31.58,31.58,0,0,1-3.43,4.81,1.52,1.52,0,0,1-1.07.54,1.44,1.44,0,0,1-1.23-.46l-8.16-9.54a1.56,1.56,0,0,1-.38-1.16,1.11,1.11,0,0,1,.53-1.07c1.7-1,3.45-2.09,5.27-3.35s3.65-2.55,5.47-3.89,3.61-2.69,5.38-4.08S222.28,648.85,223.87,647.67Z"/><path class="cls-9" d="M203.48,638.51c1.59.51,3.05,1,4.39,1.35s2.65.74,4,1.07l4.08,1c1.41.36,3,.75,4.73,1.16.46.15.7.38.7.69a1,1,0,0,1,0,.58,1.38,1.38,0,0,1-.27.42L213.56,652a1.33,1.33,0,0,1-1.84.3,14.65,14.65,0,0,1-2.47-2.38q-1.38-1.62-2.73-3.54c-.9-1.28-1.7-2.53-2.42-3.73a26.67,26.67,0,0,1-1.54-2.89,1.38,1.38,0,0,1,0-.88C202.6,638.47,202.92,638.36,203.48,638.51Z"/><path class="cls-9" d="M207,625.66c1.59.51,3,1,4.39,1.35s2.65.74,4,1.07l4.08,1c1.41.36,3,.75,4.73,1.16.41.15.62.38.62.69a1.42,1.42,0,0,1-.23,1l-7.47,7.16c-.66.66-1.3.77-1.92.3a13.25,13.25,0,0,1-2.42-2.38q-1.35-1.62-2.7-3.54c-.9-1.28-1.72-2.53-2.46-3.73a24.92,24.92,0,0,1-1.58-2.89,1.3,1.3,0,0,1,0-.88C206.12,625.62,206.46,625.51,207,625.66Z"/><path class="cls-9" d="M276.28,635.82a43.93,43.93,0,0,0,.81,5.19,27.3,27.3,0,0,0,1.5,5,.6.6,0,0,1,0,.62c-.13.21-.27.28-.43.23a17.06,17.06,0,0,1-6.77-2.35,11.89,11.89,0,0,1-4.23-4.81v6.93H253.19V634.28h-2.38v12.31H236.88v-6.93a12,12,0,0,1-4.19,4.81,16.75,16.75,0,0,1-6.74,2.35.37.37,0,0,1-.46-.23.68.68,0,0,1,0-.62,32.12,32.12,0,0,0,1.42-5,43.93,43.93,0,0,0,.81-5.19h9.16v-1.54H225.64l1.24-6h16.85V626h16.54v2.31h18.16v6H267.12v1.54Z"/><path class="cls-9" d="M261.5,655.9v-2H226.34l1.38-5.54h46.86a2.41,2.41,0,0,1,1.81.77,2.57,2.57,0,0,1,.73,1.85v7.85a2.71,2.71,0,0,1-.73,1.88,2.34,2.34,0,0,1-1.81.81H242.19v2.08h33a2.28,2.28,0,0,1,1.73.8,2.72,2.72,0,0,1,.73,1.89v5.15a3.53,3.53,0,0,1-.92,2.47,3,3,0,0,1-2.31,1H255.89a.45.45,0,0,1-.47-.43.62.62,0,0,1,.23-.65l6.47-4.31v-.38h-33a2.28,2.28,0,0,1-1.77-.77,2.7,2.7,0,0,1-.7-1.85v-7.93a2.83,2.83,0,0,1,.7-1.88,2.22,2.22,0,0,1,1.77-.81Z"/><path class="cls-9" d="M352.61,673.91H286.74a4.59,4.59,0,0,1-4.61-4.62V631.74a4.59,4.59,0,0,1,4.61-4.62h65.87v7.7H299.36v31.47h53.25Z"/><path class="cls-9" d="M350,637.59a33.92,33.92,0,0,1-5.89,6.65,76,76,0,0,1-8.66,6.66c2.57,1,5,2,7.43,2.81s4.73,1.58,7,2.19c.56.15.82.45.77.89a1.61,1.61,0,0,1-.69,1.11l-8.85,6.47a3,3,0,0,1-1.66.26,8.25,8.25,0,0,1-1.5-.34,67.37,67.37,0,0,1-13.23-7.16q-5.08,2.46-10.24,4.39a67.51,67.51,0,0,1-10,2.92.82.82,0,0,1-1-.46.72.72,0,0,1,.35-1q3.23-2.24,6.77-5.16c2.36-1.94,4.74-4,7.15-6.15a86.1,86.1,0,0,1-7.15-6.89,64.91,64.91,0,0,1-6.08-7.58c-.26-.31-.18-.6.23-.88a1,1,0,0,1,1.23,0c3,1.8,6,3.48,9,5s6,3.06,9,4.5c1.79-1.74,3.45-3.44,5-5.08s2.83-3.13,4-4.46Z"/><path class="cls-9" d="M403.17,625.81v4.85h26.7v7.62h-7.08a41.56,41.56,0,0,1-6,9.54,64.3,64.3,0,0,1-8.5,8.39q6.08,2.24,11.46,3.81a72.24,72.24,0,0,0,9.54,2.19.61.61,0,0,1,.62.66,1.48,1.48,0,0,1-.31,1l-9.77,10a3.32,3.32,0,0,1-1.58.85,3.43,3.43,0,0,1-1.88-.08,77.22,77.22,0,0,1-10.35-4,110.89,110.89,0,0,1-10.89-5.81,92.65,92.65,0,0,1-17.78,6.92,81,81,0,0,1-18,2.93c-.31,0-.48-.21-.5-.62s.11-.67.42-.77A71,71,0,0,0,373,666.87a101.83,101.83,0,0,0,12.35-8.74,84.28,84.28,0,0,1-10.5-9.42,55.29,55.29,0,0,1-7.81-10.43h-8.31l1.54-7.62h25.16v-4.85Z"/><path class="cls-10" d="M371.31,638.28q4.85,3.22,10.58,6.27t11.74,5.73c1.84-2,3.55-4,5.11-6a64.22,64.22,0,0,0,4.2-6Z"/><path class="cls-9" d="M464.42,625.58a32.17,32.17,0,0,1-4.35,9.66,31.75,31.75,0,0,1-6.5,7H460v32.86H443V647.9a36.69,36.69,0,0,1-9.23,1.77q-.39.08-.69-.54a.81.81,0,0,1,.23-1.08A30,30,0,0,0,437,644a56.63,56.63,0,0,0,7-11.77,48.27,48.27,0,0,0,2.38-6.62Z"/><path class="cls-9" d="M464.27,645.44l12.16-1.93V625.66h17.39v15.16l15.69-2.54v8.16l-15.69,2.38v18.47h15.69V675H481a4.58,4.58,0,0,1-4.61-4.61V651.51l-13.47,2Z"/><path class="cls-9" d="M532.91,647.67q.84-.61,1.23-.12a1.29,1.29,0,0,1,.23,1.12,49.29,49.29,0,0,1-2.16,6.77,80.21,80.21,0,0,1-3.31,7.43,77.77,77.77,0,0,1-3.84,6.77,33.43,33.43,0,0,1-3.62,4.81,1.63,1.63,0,0,1-1.11.53,1.68,1.68,0,0,1-1.35-.46L510.36,665a1.55,1.55,0,0,1-.39-1.15,1.11,1.11,0,0,1,.62-1.08c1.8-1,3.64-2.09,5.54-3.35s3.81-2.55,5.73-3.88,3.82-2.68,5.7-4S531.21,648.85,532.91,647.67Z"/><path class="cls-9" d="M511.36,638.51q2.53.76,4.66,1.35c1.41.38,2.8.74,4.19,1.07l4.31,1c1.49.36,3.15.75,5,1.16q.69.23.69.69a1,1,0,0,1,0,.58,1.38,1.38,0,0,1-.27.42L522,651.9c-.67.67-1.31.77-1.92.31a11.93,11.93,0,0,1-2.62-2.35q-1.47-1.65-2.89-3.54c-.95-1.26-1.8-2.49-2.57-3.69a22.17,22.17,0,0,1-1.62-2.89,1.3,1.3,0,0,1,0-.88C510.46,638.47,510.8,638.36,511.36,638.51Z"/><path class="cls-9" d="M515.13,625.66q2.54.76,4.62,1.35c1.38.38,2.77.74,4.15,1.07l4.31,1q2.24.54,5,1.16c.47.15.7.38.7.69a.88.88,0,0,1,0,.58,1.38,1.38,0,0,1-.27.42l-7.85,7.16a1.8,1.8,0,0,1-1,.53,1.17,1.17,0,0,1-1-.23,16.28,16.28,0,0,1-2.54-2.38q-1.47-1.62-2.89-3.54c-1-1.28-1.8-2.53-2.57-3.73s-1.34-2.17-1.7-2.89a1.3,1.3,0,0,1,0-.88C514.16,625.62,514.51,625.51,515.13,625.66Z"/><path class="cls-9" d="M585.69,660.06a33.1,33.1,0,0,1-10.54,7.88,59.43,59.43,0,0,1-13.27,4.51,101.27,101.27,0,0,1-14.66,2q-7.54.51-14.54.5c-.36,0-.58-.24-.66-.73s.09-.78.5-.88a88.61,88.61,0,0,0,14-4.62A92,92,0,0,0,561.07,661h-9.54V626h17.39v29.32q2-1.62,3.92-3.35c1.29-1.16,2.54-2.4,3.77-3.73Z"/><path class="cls-9" d="M549.68,631.66a55.23,55.23,0,0,1-2,9.58,47.56,47.56,0,0,1-3.31,8.16,30.34,30.34,0,0,1-4.27,6.27,16,16,0,0,1-4.88,3.85.45.45,0,0,1-.58-.16.62.62,0,0,1-.12-.69,97.07,97.07,0,0,0,2.16-12.73q.77-7.12,1-14.28Z"/><path class="cls-9" d="M582.31,631.66c.36,3.08.88,6.34,1.58,9.77a75,75,0,0,0,2.42,9.24.41.41,0,0,1-.08.42.32.32,0,0,1-.38.12,15.61,15.61,0,0,1-4.93-2.81,26.83,26.83,0,0,1-4.38-4.62A37.57,37.57,0,0,1,573,638a32.4,32.4,0,0,1-2.43-6.35Z"/><path class="cls-9" d="M590.31,633.89H606v-8.15h17.85v8.15H640l-4.62-6.54a.84.84,0,0,1,0-1.15,1.52,1.52,0,0,1,1.39-.31l14.08,2.54a1.12,1.12,0,0,1,1,.92,1.47,1.47,0,0,1-.46,1.39l-2.69,3.15h13.46v7.7h-15v11.62l15-2.16v7.7l-15,2.15v6.24h14.54v7.61H634.1a4.45,4.45,0,0,1-3.27-1.34,4.38,4.38,0,0,1-1.35-3.2v-6.84l-10.08,1.38,1.54-7.85,8.54-1.15V641.59h-5.85a34.33,34.33,0,0,1-4.16,13.93,36.21,36.21,0,0,1-8.27,10A40.78,40.78,0,0,1,600.51,672a50,50,0,0,1-11.43,3.24.63.63,0,0,1-.85-.5.91.91,0,0,1,.23-1,48.35,48.35,0,0,0,5.81-5.88,51.9,51.9,0,0,0,9.32-16.39,43.82,43.82,0,0,0,2.19-9.89h-17Z"/><g id="LWPOLYLINE-32" data-name="LWPOLYLINE"><path class="cls-11" d="M340.62,288.67a46.28,46.28,0,1,1,12.09-11.73l9,21.36Z"/></g><g id="LWPOLYLINE-33" data-name="LWPOLYLINE"><polygon class="cls-12" points="239.99 415.67 234.74 415.67 234.74 464.64 239.99 415.67"/></g><g id="LWPOLYLINE-34" data-name="LWPOLYLINE"><polygon class="cls-12" points="256.62 464.64 256.62 415.67 251.37 415.67 256.62 464.64"/></g></g></g></svg>